<?xml version="1.0" encoding="UTF-8" standalone="no"?>
<!-- Created with Inkscape (http://www.inkscape.org/) -->

<svg
   width="620mm"
   height="300mm"
   viewBox="0 0 620 300"
   version="1.1"
   id="svg1"
   inkscape:version="1.3.2 (091e20e, 2023-11-25)"
   sodipodi:docname="Gameify-title.svg"
   xmlns:inkscape="http://www.inkscape.org/namespaces/inkscape"
   xmlns:sodipodi="http://sodipodi.sourceforge.net/DTD/sodipodi-0.dtd"
   xmlns:xlink="http://www.w3.org/1999/xlink"
   xmlns="http://www.w3.org/2000/svg"
   xmlns:svg="http://www.w3.org/2000/svg">
  <sodipodi:namedview
     id="namedview1"
     pagecolor="#505050"
     bordercolor="#eeeeee"
     borderopacity="1"
     inkscape:showpageshadow="0"
     inkscape:pageopacity="0"
     inkscape:pagecheckerboard="0"
     inkscape:deskcolor="#505050"
     inkscape:document-units="mm"
     inkscape:zoom="0.3126768"
     inkscape:cx="973.84904"
     inkscape:cy="446.14759"
     inkscape:window-width="1680"
     inkscape:window-height="978"
     inkscape:window-x="0"
     inkscape:window-y="0"
     inkscape:window-maximized="0"
     inkscape:current-layer="layer1"
     showguides="true" />
  <defs
     id="defs1">
    <rect
       x="330.52466"
       y="291.56415"
       width="200.47134"
       height="166.1965"
       id="rect7" />
    <rect
       x="326.2207"
       y="284.93161"
       width="213.98685"
       height="157.09209"
       id="rect5" />
    <rect
       x="438.03632"
       y="191.59082"
       width="56.148651"
       height="15.311772"
       id="rect4" />
    <clipPath
       clipPathUnits="userSpaceOnUse"
       id="clipPath5">
      <use
         x="0"
         y="0"
         xlink:href="#g4"
         id="use5"
         transform="translate(-4.8204481,-7.749231)" />
    </clipPath>
  </defs>
  <g
     inkscape:label="Layer 1"
     inkscape:groupmode="layer"
     id="layer1">
    <rect
       style="fill:#5e4532;fill-opacity:1;stroke-width:0.465316"
       id="rect1-5"
       width="81.465584"
       height="126.49178"
       x="302.76785"
       y="-382.34549"
       ry="9.4949989"
       transform="matrix(0.67426413,0.73849028,-0.94312337,0.33244294,0,0)" />
    <rect
       style="fill:#5e4532;fill-opacity:1;stroke-width:0.375451"
       id="rect6-4"
       width="68.490349"
       height="48.427658"
       x="650.54175"
       y="-376.94443"
       ry="6.0150099"
       inkscape:label="rect6"
       transform="matrix(0.68835011,0.72537861,0,1,0,0)" />
    <rect
       style="fill:#f8f5be;fill-opacity:1;stroke-width:0.38771"
       id="rect6"
       width="72.116051"
       height="49.046333"
       x="631.80725"
       y="-346.28455"
       ry="6.0918584"
       inkscape:label="rect6"
       transform="matrix(0.71638079,0.69770951,0,1,0,0)" />
    <rect
       style="fill:#f8f5be;fill-opacity:1;stroke-width:0.464907"
       id="rect6-9"
       width="118.05856"
       height="43.109077"
       x="533.19891"
       y="-370.84329"
       ry="5.3544197"
       inkscape:label="rect6"
       transform="matrix(0.94273663,-0.33353807,0.00773575,-0.99997008,0,0)" />
    <rect
       style="fill:#5e4532;fill-opacity:1;stroke-width:0.465316"
       id="rect1"
       width="81.465584"
       height="126.49178"
       x="258.71164"
       y="-411.5817"
       ry="9.4949989"
       transform="matrix(0.67426413,0.73849028,-0.94312337,0.33244294,0,0)" />
    <ellipse
       style="fill:#333333;fill-opacity:1;stroke-width:0.242569"
       id="path1-6"
       cy="-367.43222"
       cx="305.58719"
       transform="matrix(0.67426413,0.73849028,-0.94312337,0.33244294,0,0)"
       rx="24.437294"
       ry="30.796272" />
    <ellipse
       style="fill:#484848;fill-opacity:1;stroke-width:0.192864"
       id="path1"
       cy="-367.3468"
       cx="305.28748"
       transform="matrix(0.67426413,0.73849028,-0.94312337,0.33244294,0,0)"
       rx="19.429329"
       ry="24.48513" />
    <ellipse
       style="fill:#484848;fill-opacity:1;stroke-width:0.112488"
       id="path1-6-5"
       cy="-309.32974"
       cx="320.52832"
       transform="matrix(0.67426413,0.73849028,-0.94312337,0.33244294,0,0)"
       rx="11.331113"
       ry="14.27965" />
    <ellipse
       style="display:inline;fill:#5b5635;fill-opacity:1;stroke-width:0.0886791;stroke-dasharray:none;image-rendering:auto"
       id="path1-5"
       cy="-309.28998"
       cx="320.38931"
       transform="matrix(0.67426413,0.73849028,-0.94312337,0.33244294,0,0)"
       rx="9.0090294"
       ry="11.353292" />
    <ellipse
       style="fill:#484848;fill-opacity:1;stroke-width:0.112488"
       id="path1-6-5-8"
       cy="-309.32974"
       cx="292.4809"
       transform="matrix(0.67426413,0.73849028,-0.94312337,0.33244294,0,0)"
       rx="11.331113"
       ry="14.27965" />
    <ellipse
       style="fill:#921313;fill-opacity:1;stroke-width:0.0894341"
       id="path1-5-7"
       cy="-309.28998"
       cx="292.3421"
       transform="matrix(0.67426413,0.73849028,-0.94312337,0.33244294,0,0)"
       rx="9.0090294"
       ry="11.353292" />
    <rect
       style="fill:#5b5635;fill-opacity:1;stroke-width:0.460761"
       id="rect2"
       width="8.8272295"
       height="133.48984"
       x="266.22293"
       y="-416.48135"
       ry="5.4538646"
       transform="matrix(0.67426413,0.73849028,-0.94312337,0.33244294,0,0)" />
    <rect
       style="fill:#323232;fill-opacity:1;stroke-width:0.566304"
       id="rect3"
       width="10.339002"
       height="64.033936"
       x="546.77252"
       y="46.488796"
       ry="5.1686554" />
    <g
       inkscape:label="Clip"
       id="g4"
       style="display:inline"
       transform="matrix(0.8516914,0,0,0.85155487,444.24429,10.483449)">
      <circle
         style="fill:#780d0d;fill-opacity:1;stroke-width:0.665001"
         id="path4"
         r="28.830965"
         cy="47.249889"
         cx="126.57548" />
    </g>
    <path
       style="display:inline;fill:#921313;fill-opacity:1;stroke-width:0.330965"
       id="path5"
       sodipodi:type="arc"
       sodipodi:cx="547.89178"
       sodipodi:cy="48.571526"
       sodipodi:rx="17.610167"
       sodipodi:ry="17.996378"
       sodipodi:start="0"
       sodipodi:end="6.2827659"
       sodipodi:arc-type="slice"
       d="m 565.50195,48.571526 a 17.610167,17.996378 0 0 1 -17.60832,17.996377 17.610167,17.996378 0 0 1 -17.61201,-17.992604 17.610167,17.996378 0 0 1 17.60463,-18.00015 17.610167,17.996378 0 0 1 17.6157,17.988829 l -17.61017,0.0075 z" />
    <text
       xml:space="preserve"
       style="font-size:111.194px;font-family:'.Aqua Kana';-inkscape-font-specification:'.Aqua Kana';fill:#f8f5be;fill-opacity:1;stroke-width:2.09576"
       x="9.091012"
       y="172.70494"
       id="text1"
       transform="matrix(1.0000805,-0.03207209,0,0.99991951,0,0)"><tspan
         id="tspan1"
         style="font-style:normal;font-variant:normal;font-weight:normal;font-stretch:normal;font-size:111.194px;font-family:'Avenir Next LT Pro';-inkscape-font-specification:'Avenir Next LT Pro';fill:#f8f5be;fill-opacity:1;stroke-width:2.09576"
         x="9.091012"
         y="172.70494"
         sodipodi:role="line">Game</tspan></text>
    <text
       xml:space="preserve"
       transform="scale(0.26458333)"
       id="text2"
       style="white-space:pre;shape-inside:url(#rect4);display:inline;fill:#000000" />
    <text
       xml:space="preserve"
       transform="scale(0.26458333)"
       id="text4"
       style="white-space:pre;shape-inside:url(#rect5);display:inline;fill:#f8f5be;fill-opacity:1" />
    <text
       xml:space="preserve"
       transform="matrix(0.83385834,0,0,0.83372305,35.992689,-175.24701)"
       id="text5"
       style="font-size:133.333px;white-space:pre;shape-inside:url(#rect7);display:inline;fill:#921313;fill-opacity:1"><tspan
         x="330.52539"
         y="409.5329"
         id="tspan3"><tspan
           style="font-family:'Avenir Next LT Pro';-inkscape-font-specification:'Avenir Next LT Pro'"
           id="tspan2">ify</tspan></tspan></text>
  </g>
</svg>
