<?xml version="1.0" encoding="UTF-8" standalone="no"?>
<!-- Created with Inkscape (http://www.inkscape.org/) -->

<svg
   width="21mm"
   height="29mm"
   viewBox="0 0 210 297"
   version="1.1"
   id="svg1"
   sodipodi:docname="logo_draft_plain.svg"
   inkscape:version="1.3.2 (091e20e, 2023-11-25)"
   xmlns:inkscape="http://www.inkscape.org/namespaces/inkscape"
   xmlns:sodipodi="http://sodipodi.sourceforge.net/DTD/sodipodi-0.dtd"
   xmlns:xlink="http://www.w3.org/1999/xlink"
   xmlns="http://www.w3.org/2000/svg"
   xmlns:svg="http://www.w3.org/2000/svg">
  <sodipodi:namedview
     id="namedview1"
     pagecolor="#505050"
     bordercolor="#eeeeee"
     borderopacity="1"
     inkscape:showpageshadow="0"
     inkscape:pageopacity="0"
     inkscape:pagecheckerboard="0"
     inkscape:deskcolor="#505050"
     inkscape:document-units="mm"
     inkscape:zoom="0.61616672"
     inkscape:cx="583.44599"
     inkscape:cy="292.9402"
     inkscape:window-width="1680"
     inkscape:window-height="978"
     inkscape:window-x="0"
     inkscape:window-y="0"
     inkscape:window-maximized="1"
     inkscape:current-layer="layer1" />
  <defs
     id="defs1">
    <clipPath
       clipPathUnits="userSpaceOnUse"
       id="clipPath5">
      <use
         x="0"
         y="0"
         xlink:href="#g4"
         id="use5"
         transform="translate(0,-1.2175888)" />
    </clipPath>
  </defs>
  <g
     id="layer1">
    <rect
       style="fill:#5e4532;fill-opacity:1;stroke-width:0.546343"
       id="rect1-5"
       width="95.659645"
       height="148.52124"
       x="155.78995"
       y="-38.647614"
       ry="11.148581"
       transform="matrix(0.67420492,0.73854433,-0.9431066,0.33249052,0,0)" />
    <rect
       style="fill:#5e4532;fill-opacity:1;stroke-width:0.440811"
       id="rect6-4"
       width="80.423607"
       height="56.869686"
       x="6.0659428"
       y="96.001816"
       ry="7.0635715"
       transform="matrix(0.68829182,0.72543392,0,1,0,0)" />
    <rect
       style="fill:#f8f5be;fill-opacity:1;stroke-width:0.455207"
       id="rect6"
       width="84.680611"
       height="57.596214"
       x="13.719452"
       y="90.345978"
       ry="7.1538105"
       transform="matrix(0.71632466,0.69776714,0,1,0,0)" />
    <rect
       style="fill:#f8f5be;fill-opacity:1;stroke-width:0.546021"
       id="rect6-9"
       width="138.61885"
       height="50.623978"
       x="71.154465"
       y="-239.28036"
       ry="6.2878151"
       transform="matrix(0.94271975,-0.33358578,0.00773452,-0.99997009,0,0)" />
    <rect
       style="fill:#5e4532;fill-opacity:1;stroke-width:0.546343"
       id="rect1"
       width="95.659645"
       height="148.52124"
       x="104.0582"
       y="-72.974167"
       ry="11.148581"
       transform="matrix(0.67420492,0.73854433,-0.9431066,0.33249052,0,0)" />
    <ellipse
       style="fill:#333333;fill-opacity:1;stroke-width:0.284869"
       id="path1-6"
       cy="-21.136389"
       cx="159.10077"
       transform="matrix(0.67420492,0.73854433,-0.9431066,0.33249052,0,0)"
       rx="28.695103"
       ry="36.159466" />
    <ellipse
       style="fill:#484848;fill-opacity:1;stroke-width:0.22649"
       id="path1"
       cy="-21.035938"
       cx="158.7485"
       transform="matrix(0.67420492,0.73854433,-0.9431066,0.33249052,0,0)"
       rx="22.814604"
       ry="28.749292" />
    <ellipse
       style="fill:#484848;fill-opacity:1;stroke-width:0.132088"
       id="path1-6-5"
       cy="47.08477"
       cx="176.6454"
       transform="matrix(0.67420492,0.73854433,-0.9431066,0.33249052,0,0)"
       rx="13.305405"
       ry="16.766497" />
    <ellipse
       style="fill:#5b5635;fill-opacity:1;stroke-width:0.105019"
       id="path1-5"
       cy="47.131332"
       cx="176.48206"
       transform="matrix(0.67420492,0.73854433,-0.9431066,0.33249052,0,0)"
       rx="10.578723"
       ry="13.330532" />
    <ellipse
       style="fill:#484848;fill-opacity:1;stroke-width:0.132088"
       id="path1-6-5-8"
       cy="47.08477"
       cx="143.71107"
       transform="matrix(0.67420492,0.73854433,-0.9431066,0.33249052,0,0)"
       rx="13.305405"
       ry="16.766497" />
    <ellipse
       style="fill:#780d0d;fill-opacity:1;stroke-width:0.105019"
       id="path1-5-7"
       cy="47.131332"
       cx="143.54773"
       transform="matrix(0.67420492,0.73854433,-0.9431066,0.33249052,0,0)"
       rx="10.578723"
       ry="13.330532" />
    <rect
       style="fill:#5b5635;fill-opacity:1;stroke-width:0.541002"
       id="rect2"
       width="10.365223"
       height="156.73795"
       x="112.87785"
       y="-78.729385"
       ry="6.4036908"
       transform="matrix(0.67420492,0.73854433,-0.9431066,0.33249052,0,0)" />
    <rect
       style="fill:#323232;fill-opacity:1;stroke-width:0.665001"
       id="rect3"
       width="12.139354"
       height="75.196556"
       x="120.38193"
       y="43.499352"
       ry="6.0696769" />
    <g
       id="g4"
       style="display:inline"
       transform="translate(0,1.2175888)">
      <circle
         style="fill:#780d0d;fill-opacity:1;stroke-width:0.665001"
         id="path4"
         r="28.830965"
         cy="47.249889"
         cx="126.57548" />
    </g>
    <path
       style="display:inline;fill:#921313;fill-opacity:1;stroke-width:0.388676"
       id="path5"
       d="M 142.3744,44.72765 A 20.676653,21.133488 0 0 1 121.69991,65.861137 20.676653,21.133488 0 0 1 101.02109,44.732081 20.676653,21.133488 0 0 1 121.69124,23.594163 20.676653,21.133488 0 0 1 142.3744,44.718786 l -20.67665,0.0089 z"
       transform="translate(0,1.2175888)" />
  </g>
</svg>
