<?xml version="1.0" encoding="UTF-8" standalone="no"?>
<!-- Created with Inkscape (http://www.inkscape.org/) -->

<svg
   width="210mm"
   height="297mm"
   viewBox="0 0 210 297"
   version="1.1"
   id="svg1"
   inkscape:version="1.3.2 (091e20e, 2023-11-25)"
   sodipodi:docname="logo_draft-.svg"
   xmlns:inkscape="http://www.inkscape.org/namespaces/inkscape"
   xmlns:sodipodi="http://sodipodi.sourceforge.net/DTD/sodipodi-0.dtd"
   xmlns:xlink="http://www.w3.org/1999/xlink"
   xmlns="http://www.w3.org/2000/svg"
   xmlns:svg="http://www.w3.org/2000/svg">
  <sodipodi:namedview
     id="namedview1"
     pagecolor="#505050"
     bordercolor="#eeeeee"
     borderopacity="1"
     inkscape:showpageshadow="0"
     inkscape:pageopacity="0"
     inkscape:pagecheckerboard="0"
     inkscape:deskcolor="#505050"
     inkscape:document-units="mm"
     inkscape:zoom="1.2507072"
     inkscape:cx="364.19395"
     inkscape:cy="248.25954"
     inkscape:window-width="1680"
     inkscape:window-height="978"
     inkscape:window-x="0"
     inkscape:window-y="0"
     inkscape:window-maximized="0"
     inkscape:current-layer="layer1" />
  <defs
     id="defs1">
    <rect
       x="330.52467"
       y="291.56415"
       width="200.47135"
       height="166.1965"
       id="rect7" />
    <rect
       x="326.22071"
       y="284.93162"
       width="213.98684"
       height="157.09208"
       id="rect5" />
    <rect
       x="438.03631"
       y="191.59082"
       width="56.148653"
       height="15.311772"
       id="rect4" />
    <clipPath
       clipPathUnits="userSpaceOnUse"
       id="clipPath5">
      <use
         x="0"
         y="0"
         xlink:href="#g4"
         id="use5"
         transform="translate(-3.6208053,-7.749231)" />
    </clipPath>
  </defs>
  <g
     inkscape:label="Layer 1"
     inkscape:groupmode="layer"
     id="layer1">
    <rect
       style="fill:#5e4532;fill-opacity:1;stroke-width:0.147645"
       id="rect1-5"
       width="25.851252"
       height="40.136677"
       x="117.7183"
       y="-115.66583"
       ry="3.0128145"
       transform="matrix(0.67420492,0.73854433,-0.9431066,0.33249052,0,0)" />
    <rect
       style="fill:#5e4532;fill-opacity:1;stroke-width:0.119126"
       id="rect6-4"
       width="21.733835"
       height="15.368577"
       x="219.88504"
       y="-111.51761"
       ry="1.9088736"
       inkscape:label="rect6"
       transform="matrix(0.68829182,0.72543392,0,1,0,0)" />
    <rect
       style="fill:#f8f5be;fill-opacity:1;stroke-width:0.123016"
       id="rect6"
       width="22.884256"
       height="15.564916"
       x="213.41245"
       y="-101.04836"
       ry="1.93326"
       inkscape:label="rect6"
       transform="matrix(0.71632466,0.69776714,0,1,0,0)" />
    <rect
       style="fill:#f8f5be;fill-opacity:1;stroke-width:0.147558"
       id="rect6-9"
       width="37.460632"
       height="13.680724"
       x="179.1819"
       y="-138.88541"
       ry="1.6992316"
       inkscape:label="rect6"
       transform="matrix(0.94271975,-0.33358578,0.00773452,-0.99997009,0,0)" />
    <rect
       style="fill:#5e4532;fill-opacity:1;stroke-width:0.147645"
       id="rect1"
       width="25.851252"
       height="40.136677"
       x="103.7382"
       y="-124.94231"
       ry="3.0128145"
       transform="matrix(0.67420492,0.73854433,-0.9431066,0.33249052,0,0)" />
    <ellipse
       style="fill:#333333;fill-opacity:1;stroke-width:0.0769836"
       id="path1-6"
       cy="-110.93356"
       cx="118.61301"
       transform="matrix(0.67420492,0.73854433,-0.9431066,0.33249052,0,0)"
       rx="7.7546215"
       ry="9.7718058" />
    <ellipse
       style="fill:#484848;fill-opacity:1;stroke-width:0.0612071"
       id="path1"
       cy="-110.90642"
       cx="118.51781"
       transform="matrix(0.67420492,0.73854433,-0.9431066,0.33249052,0,0)"
       rx="6.1654639"
       ry="7.7692657" />
    <ellipse
       style="fill:#484848;fill-opacity:1;stroke-width:0.0356957"
       id="path1-6-5"
       cy="-92.497345"
       cx="123.35432"
       transform="matrix(0.67420492,0.73854433,-0.9431066,0.33249052,0,0)"
       rx="3.595679"
       ry="4.5310116" />
    <ellipse
       style="display:inline;fill:#5b5635;fill-opacity:1;stroke-width:0.02813885;stroke-dasharray:none;image-rendering:auto"
       id="path1-5"
       cy="-92.484764"
       cx="123.31018"
       transform="matrix(0.67420492,0.73854433,-0.9431066,0.33249052,0,0)"
       rx="2.8588152"
       ry="3.6024694" />
    <ellipse
       style="fill:#484848;fill-opacity:1;stroke-width:0.0356957"
       id="path1-6-5-8"
       cy="-92.497345"
       cx="114.45408"
       transform="matrix(0.67420492,0.73854433,-0.9431066,0.33249052,0,0)"
       rx="3.595679"
       ry="4.5310116" />
    <ellipse
       style="fill:#921313;fill-opacity:1;stroke-width:0.0283805"
       id="path1-5-7"
       cy="-92.484764"
       cx="114.40993"
       transform="matrix(0.67420492,0.73854433,-0.9431066,0.33249052,0,0)"
       rx="2.8588152"
       ry="3.6024694" />
    <rect
       style="fill:#5b5635;fill-opacity:1;stroke-width:0.146201"
       id="rect2"
       width="2.8011184"
       height="42.357174"
       x="106.12165"
       y="-126.49761"
       ry="1.7305461"
       transform="matrix(0.67420492,0.73854433,-0.9431066,0.33249052,0,0)" />
    <rect
       style="fill:#323232;fill-opacity:1;stroke-width:0.179711"
       id="rect3"
       width="3.2805631"
       height="20.321266"
       x="182.74902"
       y="32.616894"
       ry="1.6402816" />
    <g
       inkscape:label="Clip"
       id="g4"
       style="display:inline"
       transform="matrix(0.27024199,0,0,0.27024199,150.21677,21.190588)">
      <circle
         style="fill:#780d0d;fill-opacity:1;stroke-width:0.665001"
         id="path4"
         r="28.830965"
         cy="47.249889"
         cx="126.57548" />
    </g>
    <path
       style="display:inline;fill:#921313;fill-opacity:1;stroke-width:0.105037"
       id="path5"
       sodipodi:type="arc"
       sodipodi:cx="183.10461"
       sodipodi:cy="33.277874"
       sodipodi:rx="5.5876999"
       sodipodi:ry="5.7111559"
       sodipodi:start="0"
       sodipodi:end="6.2827659"
       sodipodi:arc-type="slice"
       d="m 188.69231,33.277874 a 5.5876999,5.7111559 0 0 1 -5.58711,5.711156 5.5876999,5.7111559 0 0 1 -5.58829,-5.709958 5.5876999,5.7111559 0 0 1 5.58595,-5.712354 5.5876999,5.7111559 0 0 1 5.58945,5.708761 l -5.5877,0.0024 z" />
    <text
       xml:space="preserve"
       style="font-size:35.2778px;font-family:'.Aqua Kana';-inkscape-font-specification:'.Aqua Kana';fill:#f8f5be;fill-opacity:1;stroke-width:0.665001"
       x="12.142802"
       y="72.964302"
       id="text1"
       transform="skewY(-1.8371141)"><tspan
         id="tspan1"
         style="font-style:normal;font-variant:normal;font-weight:normal;font-stretch:normal;font-size:35.2778px;font-family:'Avenir Next LT Pro';-inkscape-font-specification:'Avenir Next LT Pro';fill:#f8f5be;fill-opacity:1;stroke-width:0.665"
         x="12.142802"
         y="72.964302"
         sodipodi:role="line">Game</tspan></text>
    <text
       xml:space="preserve"
       transform="scale(0.26458333)"
       id="text2"
       style="white-space:pre;shape-inside:url(#rect4);display:inline;fill:#000000" />
    <text
       xml:space="preserve"
       transform="scale(0.26458333)"
       id="text4"
       style="white-space:pre;shape-inside:url(#rect5);display:inline;fill:#f8f5be;fill-opacity:1" />
    <text
       xml:space="preserve"
       transform="matrix(0.26458333,0,0,0.26458333,23.890361,-38.622341)"
       id="text5"
       style="font-size:133.333px;white-space:pre;shape-inside:url(#rect7);display:inline;fill:#921313;fill-opacity:1"><tspan
         x="330.52539"
         y="409.5329"
         id="tspan5"><tspan
           style="font-family:'Avenir Next LT Pro';-inkscape-font-specification:'Avenir Next LT Pro'"
           id="tspan4">ify</tspan></tspan></text>
  </g>
</svg>
